<svg xmlns="http://www.w3.org/2000/svg" viewBox="0 0 512 512">
    <defs>
        <linearGradient id="shieldGrad" x1="0%" y1="0%" x2="100%" y2="100%">
            <stop offset="0%" style="stop-color:#00f3ff;stop-opacity:1" />
            <stop offset="100%" style="stop-color:#0066ff;stop-opacity:1" />
        </linearGradient>
    </defs>
    <path fill="url(#shieldGrad)" d="M448 64c-84.34 0-161.9-24.18-241.6-60.05a16 16 0 00-12.8 0C113.1 39.82 35.54 64 0 64v192c0 128.4 88.88 243.6 204.8 288a16.14 16.14 0 0012.8 0C333.5 1 422.4 384.4 422.4 256V64z"/>
    <path fill="#fff" d="M372.5 192.1c-12.5-12.5-32.8-12.5-45.3 0L240 279.3l-37.2-37.2c-12.5-12.5-32.8-12.5-45.3 0s-12.5 32.8 0 45.3l60 60c12.5 12.5 32.8 12.5 45.3 0l110-110c12.3-12.5 12.3-32.8-.3-45.3z"/>
</svg>
